<?xml version="1.0" encoding="UTF-8"?>
<svg width="700pt" height="700pt" version="1.1" viewBox="0 0 700 700" xmlns="http://www.w3.org/2000/svg" xmlns:xlink="http://www.w3.org/1999/xlink">
 <defs>
  <symbol id="s" overflow="visible">
   <path d="m3.8125-0.23438c-0.19922 0.10547-0.40625 0.18359-0.625 0.23438-0.21094 0.050781-0.42969 0.078125-0.65625 0.078125-0.6875 0-1.2344-0.19141-1.6406-0.57812-0.40625-0.38281-0.60938-0.90625-0.60938-1.5625 0-0.66406 0.20312-1.1914 0.60938-1.5781 0.40625-0.38281 0.95312-0.57812 1.6406-0.57812 0.22656 0 0.44531 0.027344 0.65625 0.078125 0.21875 0.054687 0.42578 0.13281 0.625 0.23438v0.84375c-0.19922-0.125-0.39844-0.21875-0.59375-0.28125-0.1875-0.070312-0.39062-0.10938-0.60938-0.10938-0.375 0-0.67188 0.125-0.89062 0.375-0.21875 0.24219-0.32812 0.57812-0.32812 1.0156 0 0.42969 0.10938 0.76562 0.32812 1.0156 0.21875 0.24219 0.51562 0.35938 0.89062 0.35938 0.21875 0 0.42188-0.03125 0.60938-0.09375 0.19531-0.070312 0.39453-0.17188 0.59375-0.29688z"/>
  </symbol>
  <symbol id="e" overflow="visible">
   <path d="m2.7812-2.2656c-0.085938-0.039063-0.16797-0.066406-0.25-0.078125-0.085938-0.019531-0.17188-0.03125-0.26562-0.03125-0.25 0-0.44922 0.085938-0.59375 0.25-0.13672 0.15625-0.20312 0.38672-0.20312 0.6875v1.4375h-0.98438v-3.1094h0.98438v0.51562c0.125-0.20703 0.26953-0.35938 0.4375-0.45312 0.16406-0.09375 0.36328-0.14062 0.59375-0.14062 0.039062 0 0.078125 0.007812 0.10938 0.015625 0.039063 0 0.097656 0.007813 0.17188 0.015625z"/>
  </symbol>
  <symbol id="a" overflow="visible">
   <path d="m3.5781-1.5625v0.28125h-2.3125c0.019531 0.23047 0.10156 0.40625 0.25 0.53125 0.14453 0.11719 0.34375 0.17188 0.59375 0.17188 0.21875 0 0.4375-0.03125 0.65625-0.09375s0.44141-0.15625 0.67188-0.28125v0.76562c-0.24219 0.085938-0.48047 0.14844-0.71875 0.1875-0.23047 0.050781-0.46094 0.078125-0.6875 0.078125-0.5625 0-1-0.14062-1.3125-0.42188-0.3125-0.28906-0.46875-0.69141-0.46875-1.2031 0-0.50781 0.14844-0.91016 0.45312-1.2031 0.30078-0.28906 0.72266-0.4375 1.2656-0.4375 0.48828 0 0.87891 0.15234 1.1719 0.45312 0.28906 0.29297 0.4375 0.68359 0.4375 1.1719zm-1.0156-0.32812c0-0.1875-0.058594-0.33594-0.17188-0.45312-0.10547-0.125-0.24609-0.1875-0.42188-0.1875-0.19922 0-0.35938 0.058594-0.48438 0.17188-0.11719 0.10547-0.1875 0.26172-0.21875 0.46875z"/>
  </symbol>
  <symbol id="l" overflow="visible">
   <path d="m1.875-1.4062c-0.21094 0-0.36719 0.039062-0.46875 0.10938-0.10547 0.074219-0.15625 0.17969-0.15625 0.3125 0 0.125 0.039062 0.22656 0.125 0.29688 0.082031 0.074219 0.19531 0.10938 0.34375 0.10938 0.1875 0 0.34375-0.066406 0.46875-0.20312 0.13281-0.13281 0.20312-0.30078 0.20312-0.5v-0.125zm1.5156-0.375v1.7812h-1v-0.46875c-0.13672 0.19922-0.28906 0.33984-0.45312 0.42188-0.16797 0.082031-0.37109 0.125-0.60938 0.125-0.32422 0-0.58594-0.09375-0.78125-0.28125-0.19922-0.1875-0.29688-0.42969-0.29688-0.73438 0-0.36328 0.125-0.62891 0.375-0.79688 0.25-0.16406 0.64062-0.25 1.1719-0.25h0.59375v-0.078125c0-0.16406-0.0625-0.28516-0.1875-0.35938-0.125-0.070313-0.32031-0.10938-0.57812-0.10938-0.21875 0-0.42188 0.027344-0.60938 0.078125-0.17969 0.042969-0.34375 0.10547-0.5 0.1875v-0.76562c0.20703-0.050781 0.42188-0.085938 0.64062-0.10938 0.21875-0.03125 0.42969-0.046875 0.64062-0.046875 0.5625 0 0.96875 0.11719 1.2188 0.34375 0.25 0.21875 0.375 0.57422 0.375 1.0625z"/>
  </symbol>
  <symbol id="d" overflow="visible">
   <path d="m1.5625-4v0.89062h1.0312v0.70312h-1.0312v1.3281c0 0.14844 0.023438 0.24609 0.078125 0.29688 0.0625 0.042969 0.17578 0.0625 0.34375 0.0625h0.51562v0.71875h-0.84375c-0.39844 0-0.67969-0.078125-0.84375-0.23438-0.16797-0.16406-0.25-0.44531-0.25-0.84375v-1.3281h-0.48438v-0.70312h0.48438v-0.89062z"/>
  </symbol>
  <symbol id="k" overflow="visible">
   <path d="m2.5938-2.6562v-1.6719h1v4.3281h-1v-0.45312c-0.13672 0.1875-0.28906 0.32422-0.45312 0.40625-0.16797 0.082031-0.35938 0.125-0.57812 0.125-0.375 0-0.6875-0.14844-0.9375-0.45312-0.25-0.30078-0.375-0.69141-0.375-1.1719 0-0.47656 0.125-0.86719 0.375-1.1719 0.25-0.3125 0.5625-0.46875 0.9375-0.46875 0.21875 0 0.41016 0.046875 0.57812 0.14062 0.16406 0.085937 0.31641 0.21484 0.45312 0.39062zm-0.65625 2.0156c0.20703 0 0.36719-0.078125 0.48438-0.23438 0.11328-0.15625 0.17188-0.37891 0.17188-0.67188 0-0.30078-0.058594-0.53125-0.17188-0.6875-0.11719-0.15625-0.27734-0.23438-0.48438-0.23438-0.21094 0-0.37109 0.078125-0.48438 0.23438-0.11719 0.15625-0.17188 0.38672-0.17188 0.6875 0 0.29297 0.054688 0.51562 0.17188 0.67188 0.11328 0.15625 0.27344 0.23438 0.48438 0.23438z"/>
  </symbol>
  <symbol id="g" overflow="visible">
   <path d="m2.1406-0.64062c0.20703 0 0.36328-0.078125 0.46875-0.23438 0.11328-0.15625 0.17188-0.37891 0.17188-0.67188 0-0.30078-0.058594-0.53125-0.17188-0.6875-0.10547-0.15625-0.26172-0.23438-0.46875-0.23438-0.21875 0-0.38672 0.078125-0.5 0.23438-0.11719 0.15625-0.17188 0.38672-0.17188 0.6875 0 0.29297 0.054688 0.51562 0.17188 0.67188 0.11328 0.15625 0.28125 0.23438 0.5 0.23438zm-0.67188-2.0156c0.13281-0.17578 0.28516-0.30469 0.45312-0.39062 0.16406-0.09375 0.35938-0.14062 0.57812-0.14062 0.38281 0 0.69531 0.15625 0.9375 0.46875 0.25 0.30469 0.375 0.69531 0.375 1.1719 0 0.48047-0.125 0.87109-0.375 1.1719-0.24219 0.30469-0.55469 0.45312-0.9375 0.45312-0.21875 0-0.41406-0.042969-0.57812-0.125-0.16797-0.082031-0.32031-0.21875-0.45312-0.40625v0.45312h-0.98438v-4.3281h0.98438z"/>
  </symbol>
  <symbol id="f" overflow="visible">
   <path d="m0.0625-3.1094h1l0.84375 2.1094 0.70312-2.1094h1l-1.3125 3.4062c-0.13672 0.34375-0.29297 0.58203-0.46875 0.71875-0.16797 0.14453-0.39844 0.21875-0.6875 0.21875h-0.57812v-0.65625h0.3125c0.17578 0 0.30078-0.03125 0.375-0.09375 0.070312-0.054687 0.12891-0.14844 0.17188-0.28125l0.03125-0.078125z"/>
  </symbol>
  <symbol id="j" overflow="visible">
   <path d="m0.51562-4.1406h1.0781v4.1406h-1.0781z"/>
  </symbol>
  <symbol id="i" overflow="visible">
   <path d="m2.9844-3.0156v0.8125c-0.13672-0.09375-0.27344-0.16016-0.40625-0.20312-0.13672-0.039062-0.27734-0.0625-0.42188-0.0625-0.27344 0-0.48438 0.085938-0.64062 0.25-0.15625 0.15625-0.23438 0.38281-0.23438 0.67188 0 0.29297 0.078125 0.52344 0.23438 0.6875 0.15625 0.15625 0.36719 0.23438 0.64062 0.23438 0.15625 0 0.30078-0.019531 0.4375-0.0625 0.14453-0.050781 0.27344-0.125 0.39062-0.21875v0.8125c-0.15625 0.0625-0.3125 0.10156-0.46875 0.125-0.15625 0.03125-0.32031 0.046875-0.48438 0.046875-0.5625 0-1-0.14062-1.3125-0.42188-0.3125-0.28906-0.46875-0.69141-0.46875-1.2031 0-0.51953 0.15625-0.92188 0.46875-1.2031 0.3125-0.28906 0.75-0.4375 1.3125-0.4375 0.16406 0 0.32812 0.015625 0.48438 0.046875s0.3125 0.074219 0.46875 0.125z"/>
  </symbol>
  <symbol id="c" overflow="visible">
   <path d="m1.9531-2.4688c-0.21875 0-0.38672 0.078125-0.5 0.23438-0.11719 0.15625-0.17188 0.38672-0.17188 0.6875 0 0.29297 0.054688 0.52344 0.17188 0.6875 0.11328 0.15625 0.28125 0.23438 0.5 0.23438s0.38281-0.078125 0.5-0.23438c0.11328-0.16406 0.17188-0.39453 0.17188-0.6875 0-0.30078-0.058594-0.53125-0.17188-0.6875-0.11719-0.15625-0.28125-0.23438-0.5-0.23438zm0-0.71875c0.53906 0 0.95703 0.14844 1.25 0.4375 0.30078 0.29297 0.45312 0.69531 0.45312 1.2031 0 0.51172-0.15234 0.91406-0.45312 1.2031-0.29297 0.28125-0.71094 0.42188-1.25 0.42188-0.53125 0-0.94922-0.14062-1.25-0.42188-0.30469-0.28906-0.45312-0.69141-0.45312-1.2031 0-0.50781 0.14844-0.91016 0.45312-1.2031 0.30078-0.28906 0.71875-0.4375 1.25-0.4375z"/>
  </symbol>
  <symbol id="b" overflow="visible">
   <path d="m3.6094-1.8906v1.8906h-1v-1.4531c0-0.26953-0.011719-0.45312-0.03125-0.54688-0.011719-0.10156-0.027344-0.17969-0.046875-0.23438-0.042969-0.0625-0.10156-0.10938-0.17188-0.14062-0.0625-0.039062-0.13672-0.0625-0.21875-0.0625-0.21094 0-0.375 0.085938-0.5 0.25-0.11719 0.15625-0.17188 0.375-0.17188 0.65625v1.5312h-0.98438v-3.1094h0.98438v0.45312c0.15625-0.17578 0.31641-0.30469 0.48438-0.39062 0.16406-0.09375 0.34766-0.14062 0.54688-0.14062 0.36328 0 0.64062 0.10938 0.82812 0.32812s0.28125 0.54297 0.28125 0.96875z"/>
  </symbol>
  <symbol id="h" overflow="visible">
   <path d="m0.4375-1.2031v-1.9062h1v0.3125 0.64062 0.5c0 0.25 0.003906 0.43359 0.015625 0.54688 0.019531 0.10547 0.046875 0.18359 0.078125 0.23438 0.03125 0.0625 0.078125 0.11719 0.14062 0.15625 0.070313 0.03125 0.14844 0.046875 0.23438 0.046875 0.20703 0 0.36719-0.078125 0.48438-0.23438 0.125-0.16406 0.1875-0.39062 0.1875-0.67188v-1.5312h1v3.1094h-1v-0.45312c-0.14844 0.1875-0.30859 0.32422-0.48438 0.40625-0.16797 0.082031-0.35156 0.125-0.54688 0.125-0.35547 0-0.63281-0.10938-0.82812-0.32812-0.1875-0.21875-0.28125-0.53516-0.28125-0.95312z"/>
  </symbol>
  <symbol id="r" overflow="visible">
   <path d="m2.5312-4.3281v0.65625h-0.5625c-0.13672 0-0.23438 0.027344-0.29688 0.078125-0.054687 0.054688-0.078125 0.14062-0.078125 0.26562v0.21875h0.85938v0.70312h-0.85938v2.4062h-0.98438v-2.4062h-0.5v-0.70312h0.5v-0.21875c0-0.33203 0.09375-0.58203 0.28125-0.75 0.1875-0.16406 0.47656-0.25 0.875-0.25z"/>
  </symbol>
  <symbol id="q" overflow="visible">
   <path d="m3.3594-2.5938c0.125-0.1875 0.26953-0.33203 0.4375-0.4375 0.17578-0.10156 0.36719-0.15625 0.57812-0.15625 0.36328 0 0.63281 0.10938 0.8125 0.32812 0.1875 0.21875 0.28125 0.54297 0.28125 0.96875v1.8906h-0.98438v-1.625-0.0625-0.125c0-0.21875-0.039063-0.375-0.10938-0.46875-0.0625-0.10156-0.16406-0.15625-0.29688-0.15625-0.19922 0-0.35156 0.078125-0.45312 0.23438-0.09375 0.15625-0.14844 0.38281-0.15625 0.67188v1.5312h-1v-1.625c0-0.34375-0.03125-0.5625-0.09375-0.65625-0.054688-0.10156-0.15625-0.15625-0.3125-0.15625-0.1875 0-0.33594 0.078125-0.4375 0.23438-0.10547 0.15625-0.15625 0.38281-0.15625 0.67188v1.5312h-1v-3.1094h1v0.45312c0.125-0.17578 0.26562-0.30469 0.42188-0.39062 0.15625-0.09375 0.33203-0.14062 0.53125-0.14062 0.20703 0 0.39453 0.054688 0.5625 0.15625 0.16406 0.10547 0.28906 0.25 0.375 0.4375z"/>
  </symbol>
  <symbol id="p" overflow="visible">
   <path d="m3.6094-1.8906v1.8906h-1v-1.4375c0-0.28125-0.011719-0.46875-0.03125-0.5625-0.011719-0.10156-0.027344-0.17969-0.046875-0.23438-0.042969-0.0625-0.10156-0.10938-0.17188-0.14062-0.0625-0.039062-0.13672-0.0625-0.21875-0.0625-0.21094 0-0.375 0.085938-0.5 0.25-0.11719 0.15625-0.17188 0.375-0.17188 0.65625v1.5312h-0.98438v-4.3281h0.98438v1.6719c0.15625-0.17578 0.31641-0.30469 0.48438-0.39062 0.16406-0.09375 0.34766-0.14062 0.54688-0.14062 0.36328 0 0.64062 0.10938 0.82812 0.32812s0.28125 0.54297 0.28125 0.96875z"/>
  </symbol>
  <symbol id="o" overflow="visible">
   <path d="m0.51562-4.1406h1.2031l1.5 2.8438v-2.8438h1.0156v4.1406h-1.1875l-1.5156-2.8438v2.8438h-1.0156z"/>
  </symbol>
  <symbol id="n" overflow="visible">
   <path d="m0.51562-4.1406h1.7812c0.53125 0 0.9375 0.12109 1.2188 0.35938 0.28125 0.23047 0.42188 0.55859 0.42188 0.98438 0 0.4375-0.14062 0.77734-0.42188 1.0156-0.28125 0.23047-0.6875 0.34375-1.2188 0.34375h-0.70312v1.4375h-1.0781zm1.0781 0.76562v1.1562h0.59375c0.20703 0 0.36328-0.046875 0.46875-0.14062 0.11328-0.10156 0.17188-0.25 0.17188-0.4375s-0.058594-0.32812-0.17188-0.42188c-0.10547-0.10156-0.26172-0.15625-0.46875-0.15625z"/>
  </symbol>
  <symbol id="m" overflow="visible">
   <path d="m0.48438-3.1094h0.98438v3.0469c0 0.41406-0.10156 0.73438-0.29688 0.95312-0.19922 0.22656-0.49219 0.34375-0.875 0.34375h-0.48438v-0.65625h0.17188c0.1875 0 0.31641-0.046875 0.39062-0.14062 0.070312-0.085938 0.10938-0.25 0.10938-0.5zm0-1.2188h0.98438v0.8125h-0.98438z"/>
  </symbol>
 </defs>
 <g>
  <path d="m494.47 328.53c-3.6211 0-6.5547-2.9336-6.5547-6.5547v-23.562l-129.87-109.2-7.125 5.9922c-2.7734 2.3281-6.9062 1.9727-9.2383-0.80078-2.3281-2.7734-1.9727-6.9062 0.80078-9.2383l11.344-9.5352c2.4375-2.0508 6-2.0508 8.4375 0l136.43 114.71c1.4805 1.2461 2.3359 3.082 2.3359 5.0195v26.617c0 3.6172-2.9336 6.5508-6.5547 6.5508z" fill-rule="evenodd"/>
  <path d="m221.62 476.32c-3.6211 0-6.5547-2.9336-6.5547-6.5547v-174.41c0-1.9336 0.85547-3.7734 2.3359-5.0195l86.312-72.574c2.7734-2.3281 6.9062-1.9727 9.2383 0.80078 2.3281 2.7734 1.9727 6.9062-0.80078 9.2383l-83.977 70.609v171.36c0 3.6172-2.9375 6.5508-6.5547 6.5508z" fill-rule="evenodd"/>
  <path d="m553.54 476.32h-390.59c-3.6211 0-6.5547-2.9336-6.5547-6.5547s2.9336-6.5547 6.5547-6.5547h390.59c3.6211 0 6.5547 2.9336 6.5547 6.5547s-2.9336 6.5547-6.5547 6.5547z" fill-rule="evenodd"/>
  <path d="m386.62 476.32h-57.141c-3.6211 0-6.5547-2.9336-6.5547-6.5547v-93.281c0-3.6211 2.9336-6.5547 6.5547-6.5547h57.141c3.6211 0 6.5547 2.9336 6.5547 6.5547v93.281c0 3.6211-2.9336 6.5547-6.5547 6.5547zm-50.586-13.113h44.027v-80.168h-44.027z" fill-rule="evenodd"/>
  <path d="m221.62 320.33h-0.023438l-58.684-0.19531c-2.7383-0.007812-5.1836-1.7188-6.1289-4.2891-0.94531-2.5703-0.19922-5.457 1.8789-7.2383l123.43-106.04c2.7461-2.3594 6.8867-2.0469 9.2461 0.69922s2.0469 6.8867-0.69922 9.2461l-110.08 94.57 41.082 0.13672c3.6211 0.011719 6.5469 2.957 6.5352 6.5781-0.015625 3.6094-2.9492 6.5312-6.5586 6.5312z" fill-rule="evenodd"/>
  <path d="m494.48 320.14-0.007812-13.113 41.355-0.027344-177.77-152.4-18.449 15.848c-2.7461 2.3594-6.8867 2.0469-9.2461-0.69922s-2.0469-6.8867 0.69922-9.2461l22.715-19.516c2.457-2.1094 6.082-2.1133 8.5391-0.003906l195.49 167.59c2.082 1.7852 2.832 4.6758 1.8828 7.25-0.94922 2.5742-3.4023 4.2812-6.1445 4.2812z" fill-rule="evenodd"/>
  <path d="m358.05 345.93c-21.23 0-38.5-17.273-38.5-38.5 0-21.23 17.273-38.504 38.5-38.504 21.23 0 38.504 17.27 38.504 38.504 0 21.227-17.273 38.5-38.504 38.5zm0-63.895c-14 0-25.391 11.391-25.391 25.391s11.391 25.391 25.391 25.391 25.391-11.391 25.391-25.391-11.391-25.391-25.391-25.391z" fill-rule="evenodd"/>
  <path d="m279.5 331.21h-28.609c-3.6211 0-6.5547-2.9336-6.5547-6.5547s2.9336-6.5547 6.5547-6.5547h28.609c3.6211 0 6.5547 2.9336 6.5547 6.5547s-2.9336 6.5547-6.5547 6.5547z" fill-rule="evenodd"/>
  <path d="m292.12 350.48h-26.93c-3.6211 0-6.5547-2.9336-6.5547-6.5547 0-3.6211 2.9336-6.5547 6.5547-6.5547h26.93c3.6211 0 6.5547 2.9336 6.5547 6.5547 0.003906 3.6172-2.9336 6.5547-6.5547 6.5547z" fill-rule="evenodd"/>
  <path d="m207.71 281.66c-1.4375 0-2.8828-0.46875-4.0938-1.4375-0.70312-0.5625-1.4297-1.1719-2.2852-1.9102-21.445-18.684-30.848-47.785-24.551-75.957 4.1602-18.629 11.492-34.383 21.793-46.82 1.5391-1.8594 3.9766-2.7227 6.3438-2.2461 2.3672 0.47656 4.2812 2.2148 4.9805 4.5273 0.015625 0.054688 2.0156 6.5039 5.957 12.867 1.7422 2.8086 4.0742 5.9414 6.8984 8.2539-0.22266-6.6797 0.0625-15.891 2.0312-26.281 2.3125-12.195 6.4766-23.539 12.375-33.715 7.3945-12.754 17.527-23.656 30.109-32.406 1.9766-1.3711 4.543-1.5547 6.6914-0.47266 2.1484 1.082 3.5312 3.2539 3.6055 5.6562 0.003907 0.066406 0.30469 8.1445 3.2969 19.715 2.7305 10.566 8.3359 26.324 19.531 41.383 2.1602 2.9062 1.5547 7.0117-1.3516 9.1719-2.9062 2.1602-7.0117 1.5547-9.1719-1.3516-15.66-21.062-21.684-43.133-23.992-56.367-14.719 13.062-24.164 29.957-28.129 50.359-3.5781 18.418-1.1211 32.961-1.0977 33.105 0.34375 1.9727-0.23047 4-1.5664 5.4961-1.332 1.4961-3.2773 2.3047-5.2773 2.1875-9.6289-0.56641-18.367-6.8242-25.273-18.102-0.88281-1.4375-1.6797-2.8711-2.3945-4.25-6.8594 11.246-10.582 23.227-12.574 32.141-5.2461 23.473 2.5547 47.691 20.355 63.199 0.71094 0.61328 1.3086 1.1172 1.875 1.5703 2.8281 2.2617 3.2852 6.3906 1.0195 9.2148-1.2773 1.625-3.1797 2.4688-5.1055 2.4688z" fill-rule="evenodd"/>
  <path d="m314.26 229.96c-10.301 0-19.992-3.9609-27.344-11.199-7.5117-7.3906-11.648-17.266-11.648-27.801 0-6.0352 1.418-12.051 4.1016-17.426 4.2891-11.676 17.039-38.984 45.141-49.598 2.1211-0.80078 4.5039-0.44922 6.3047 0.92969 1.8008 1.3789 2.7578 3.5859 2.5391 5.8438-0.007812 0.082031-0.85937 9.6797 2.0469 20.184 1.3867 5.0117 4.043 9.7266 7.8906 14.012 6.6914 7.4453 10.23 17.066 9.9688 27.094-0.26172 10.051-4.375 19.516-11.582 26.648-7.2031 7.1328-16.707 11.148-26.762 11.309-0.22266 0-0.44141 0.003907-0.65625 0.003907zm-23.094-50.711c-1.8516 3.6484-2.7891 7.5859-2.7891 11.707 0 6.9961 2.7461 13.551 7.7344 18.457 4.9844 4.9062 11.578 7.543 18.59 7.4297 13.676-0.22266 25.094-11.523 25.449-25.191 0.17187-6.6602-2.1758-13.047-6.6133-17.988-5.2188-5.8086-8.8477-12.297-10.777-19.281-1.3906-5.0234-2.0781-9.8359-2.3984-13.871-17.262 10.598-25.699 29.324-28.777 37.789-0.11719 0.33203-0.25391 0.64844-0.41797 0.94922z" fill-rule="evenodd"/>
  <path d="m490.53 452.79c-6.457 0-12.527-2.4844-17.137-7.0195-4.707-4.6328-7.3008-10.82-7.3008-17.422 0-3.7266 0.86328-7.4414 2.4961-10.773 2.5625-6.9062 10.051-22.695 26.547-28.926 2.1289-0.80469 4.5273-0.47266 6.3281 0.91797 1.7969 1.3867 2.75 3.582 2.5156 5.8398-0.023438 0.28516-0.375 4.9805 1.0352 10.07 0.64062 2.3203 1.8867 4.5195 3.7031 6.5391 4.1914 4.6641 6.4141 10.695 6.25 16.98-0.16406 6.3047-2.7422 12.234-7.2539 16.703-4.5117 4.4688-10.469 6.9844-16.773 7.0859-0.13672 0-0.27344 0.003906-0.41016 0.003906zm-10.129-29.52c-0.79297 1.582-1.1953 3.2891-1.1953 5.0742 0 3.0625 1.2031 5.9297 3.3828 8.0781 2.1836 2.1484 5.0703 3.3047 8.1367 3.25 5.9844-0.097656 10.98-5.043 11.137-11.02 0.078125-2.918-0.95312-5.7109-2.8945-7.8711-3.1836-3.543-5.4023-7.5156-6.5898-11.809-0.29297-1.0547-0.53125-2.0859-0.72656-3.0898-6.4531 5.6914-9.7539 13.48-10.836 16.438-0.10938 0.32813-0.25 0.64844-0.41406 0.94922z" fill-rule="evenodd"/>
  <path d="m488.89 476.32h-0.11328c-16.594-0.03125-32.191-6.5156-43.918-18.254-11.727-11.742-18.191-27.352-18.195-43.949 0-0.13672 0.003906-0.27734 0.011719-0.41406 0.21875-3.5117 0.91406-10.648 3.0781-18.988 0.003907-0.023438 0.011719-0.050782 0.019532-0.074219 3.1953-12.258 8.3398-22.723 15.281-31.109 1.5391-1.8594 3.9766-2.7227 6.3477-2.2461 2.3672 0.47656 4.2812 2.2188 4.9805 4.5312 0 0.003906 0.51953 1.6758 1.5391 3.9688 0.63672 1.4258 2.1094 4.4805 4.1719 7.2109 0.097656-4.7695 0.59766-10.555 1.9492-16.832 1.8711-8.6797 5.0391-16.754 9.418-23.992 5.4141-8.9531 12.688-16.641 21.621-22.852 1.9766-1.3711 4.543-1.5547 6.6914-0.47266 2.1484 1.082 3.5312 3.25 3.6055 5.6562 0.003907 0.078125 0.39063 9.6992 4.8359 21.961 3.5586 9.8008 9.9062 18.688 18.359 25.691 14.379 11.914 22.598 29.453 22.547 48.109-0.09375 34.238-28.004 62.055-62.23 62.055zm-49.117-62.004c0.12109 26.93 22.07 48.844 49.023 48.895h0.089844c27.02 0 49.043-21.953 49.117-48.98 0.039063-14.727-6.4492-28.574-17.801-37.98-10.25-8.4922-17.965-19.32-22.32-31.316-1.8477-5.0859-3.0898-9.7812-3.9219-13.742-8.6523 8.5156-14.391 19.148-17.105 31.734-2.9727 13.789-1.1055 24.613-1.0859 24.719 0.35156 1.9766-0.22266 4.0039-1.5547 5.5039s-3.2812 2.3086-5.2852 2.1914c-7.6836-0.45312-14.609-5.4688-19.926-14.301-2.7344 5.0312-4.9336 10.703-6.5625 16.965-0.003906 0.019532-0.011718 0.042969-0.015624 0.0625-1.832 7.0977-2.4453 13.148-2.6523 16.25z" fill-rule="evenodd"/>
  <path d="m535.05 337.11c0-2.8906-2.3594-5.25-5.25-5.25s-5.25 2.3594-5.25 5.25 2.3594 5.25 5.25 5.25c2.8906 0.003906 5.25-2.3594 5.25-5.25z" fill-rule="evenodd"/>
  <path d="m208.88 124.82c0-2.8906-2.3594-5.25-5.25-5.25s-5.25 2.3594-5.25 5.25 2.3594 5.25 5.25 5.25 5.25-2.3594 5.25-5.25z" fill-rule="evenodd"/>
  <path d="m304.04 118.18c0 5.5703-8.3555 5.5703-8.3555 0 0-5.5703 8.3555-5.5703 8.3555 0" fill-rule="evenodd"/>
  <path d="m167.12 238.43c0 5.5703-8.3555 5.5703-8.3555 0 0-5.5703 8.3555-5.5703 8.3555 0" fill-rule="evenodd"/>
  <path d="m451.18 344.43c-1.3047 0-2.6211-0.38672-3.7695-1.1992-5.2305-3.6836-8.3867-9.4648-8.6602-15.859-0.27344-6.3945 2.3789-12.422 7.2773-16.543l4.6133-3.8789c1.8008-1.5156 2.75-3.7266 2.6094-6.0742s-1.3516-4.4297-3.3203-5.7188c-3.0312-1.9805-3.8828-6.043-1.9023-9.0742s6.043-3.8828 9.0742-1.9023c5.4766 3.5781 8.8398 9.375 9.2344 15.906 0.39453 6.5273-2.2539 12.688-7.2578 16.898l-4.6133 3.8789c-1.7617 1.4805-2.7148 3.6484-2.6172 5.9453 0.097657 2.2969 1.2344 4.375 3.1133 5.7031 2.9609 2.0859 3.668 6.1758 1.582 9.1367-1.2734 1.8125-3.3008 2.7812-5.3633 2.7812z" fill-rule="evenodd"/>
  <path d="m153.5 221.72c-1.3047 0-2.6211-0.38672-3.7695-1.1992-5.5625-3.918-8.918-10.062-9.207-16.863-0.28906-6.7969 2.5273-13.207 7.7383-17.586l5.043-4.2383c2.1172-1.7773 3.2344-4.3828 3.0664-7.1406-0.16797-2.7578-1.5898-5.2109-3.9023-6.7227-3.0312-1.9805-3.8828-6.043-1.9023-9.0742 1.9805-3.0312 6.043-3.8828 9.0742-1.9023 5.8203 3.8047 9.3984 9.9688 9.8164 16.906 0.41797 6.9414-2.3945 13.488-7.7188 17.965l-5.043 4.2383c-2.0703 1.7422-3.1914 4.2891-3.0742 6.9922 0.11328 2.6992 1.4492 5.1445 3.6602 6.7031 2.9609 2.0859 3.668 6.1758 1.582 9.1367-1.2734 1.8164-3.3008 2.7852-5.3633 2.7852z" fill-rule="evenodd"/>
  <use x="70" y="577.074219" xlink:href="#s"/>
  <use x="74.175781" y="577.074219" xlink:href="#e"/>
  <use x="76.984375" y="577.074219" xlink:href="#a"/>
  <use x="80.84375" y="577.074219" xlink:href="#l"/>
  <use x="84.683594" y="577.074219" xlink:href="#d"/>
  <use x="87.402344" y="577.074219" xlink:href="#a"/>
  <use x="91.261719" y="577.074219" xlink:href="#k"/>
  <use x="97.320312" y="577.074219" xlink:href="#g"/>
  <use x="101.390625" y="577.074219" xlink:href="#f"/>
  <use x="107.082031" y="577.074219" xlink:href="#j"/>
  <use x="109.199219" y="577.074219" xlink:href="#i"/>
  <use x="112.574219" y="577.074219" xlink:href="#c"/>
  <use x="116.484375" y="577.074219" xlink:href="#b"/>
  <use x="120.535156" y="577.074219" xlink:href="#g"/>
  <use x="124.609375" y="577.074219" xlink:href="#h"/>
  <use x="128.660156" y="577.074219" xlink:href="#b"/>
  <use x="132.710938" y="577.074219" xlink:href="#b"/>
  <use x="136.765625" y="577.074219" xlink:href="#f"/>
  <use x="70" y="582.765625" xlink:href="#r"/>
  <use x="72.476562" y="582.765625" xlink:href="#e"/>
  <use x="75.28125" y="582.765625" xlink:href="#c"/>
  <use x="79.191406" y="582.765625" xlink:href="#q"/>
  <use x="87.105469" y="582.765625" xlink:href="#d"/>
  <use x="89.824219" y="582.765625" xlink:href="#p"/>
  <use x="93.875" y="582.765625" xlink:href="#a"/>
  <use x="99.71875" y="582.765625" xlink:href="#o"/>
  <use x="104.480469" y="582.765625" xlink:href="#c"/>
  <use x="108.390625" y="582.765625" xlink:href="#h"/>
  <use x="112.441406" y="582.765625" xlink:href="#b"/>
  <use x="118.472656" y="582.765625" xlink:href="#n"/>
  <use x="122.644531" y="582.765625" xlink:href="#e"/>
  <use x="125.453125" y="582.765625" xlink:href="#c"/>
  <use x="129.363281" y="582.765625" xlink:href="#m"/>
  <use x="131.3125" y="582.765625" xlink:href="#a"/>
  <use x="135.171875" y="582.765625" xlink:href="#i"/>
  <use x="138.546875" y="582.765625" xlink:href="#d"/>
 </g>
</svg>
