<?xml version="1.0" encoding="UTF-8"?>
<svg width="700pt" height="700pt" version="1.1" viewBox="0 0 700 700" xmlns="http://www.w3.org/2000/svg" xmlns:xlink="http://www.w3.org/1999/xlink">
 <defs>
  <symbol id="y" overflow="visible">
   <path d="m18.766-1.125c-0.96875 0.5-1.9805 0.875-3.0312 1.125-1.043 0.25781-2.1367 0.39062-3.2812 0.39062-3.3984 0-6.0898-0.94531-8.0781-2.8438-1.9922-1.9062-2.9844-4.4844-2.9844-7.7344 0-3.2578 0.99219-5.8359 2.9844-7.7344 1.9883-1.9062 4.6797-2.8594 8.0781-2.8594 1.1445 0 2.2383 0.13281 3.2812 0.39062 1.0508 0.25 2.0625 0.625 3.0312 1.125v4.2188c-0.98047-0.65625-1.9453-1.1406-2.8906-1.4531-0.94922-0.3125-1.9492-0.46875-3-0.46875-1.875 0-3.3516 0.60547-4.4219 1.8125-1.0742 1.1992-1.6094 2.8555-1.6094 4.9688 0 2.1055 0.53516 3.7617 1.6094 4.9688 1.0703 1.1992 2.5469 1.7969 4.4219 1.7969 1.0508 0 2.0508-0.14844 3-0.45312 0.94531-0.3125 1.9102-0.80078 2.8906-1.4688z"/>
  </symbol>
  <symbol id="d" overflow="visible">
   <path d="m13.734-11.141c-0.4375-0.19531-0.87109-0.34375-1.2969-0.4375-0.41797-0.10156-0.83984-0.15625-1.2656-0.15625-1.2617 0-2.2305 0.40625-2.9062 1.2188-0.67969 0.80469-1.0156 1.9531-1.0156 3.4531v7.0625h-4.8906v-15.312h4.8906v2.5156c0.625-1 1.3438-1.7266 2.1562-2.1875 0.82031-0.46875 1.8008-0.70312 2.9375-0.70312 0.16406 0 0.34375 0.011719 0.53125 0.03125 0.19531 0.011719 0.47656 0.039062 0.84375 0.078125z"/>
  </symbol>
  <symbol id="a" overflow="visible">
   <path d="m17.641-7.7031v1.4062h-11.453c0.125 1.1484 0.53906 2.0078 1.25 2.5781 0.70703 0.57422 1.7031 0.85938 2.9844 0.85938 1.0312 0 2.082-0.14844 3.1562-0.45312 1.082-0.3125 2.1914-0.77344 3.3281-1.3906v3.7656c-1.1562 0.4375-2.3125 0.76562-3.4688 0.98438-1.1562 0.22656-2.3125 0.34375-3.4688 0.34375-2.7734 0-4.9297-0.70312-6.4688-2.1094-1.5312-1.4062-2.2969-3.3789-2.2969-5.9219 0-2.5 0.75391-4.4609 2.2656-5.8906 1.5078-1.4375 3.582-2.1562 6.2188-2.1562 2.4062 0 4.332 0.73047 5.7812 2.1875 1.4453 1.4492 2.1719 3.3828 2.1719 5.7969zm-5.0312-1.625c0-0.92578-0.27344-1.6719-0.8125-2.2344-0.54297-0.57031-1.25-0.85938-2.125-0.85938-0.94922 0-1.7188 0.26562-2.3125 0.79688s-0.96484 1.2969-1.1094 2.2969z"/>
  </symbol>
  <symbol id="e" overflow="visible">
   <path d="m9.2188-6.8906c-1.0234 0-1.793 0.17188-2.3125 0.51562-0.51172 0.34375-0.76562 0.85547-0.76562 1.5312 0 0.625 0.20703 1.1172 0.625 1.4688 0.41406 0.34375 0.98828 0.51562 1.7188 0.51562 0.92578 0 1.7031-0.32812 2.3281-0.98438 0.63281-0.66406 0.95312-1.4922 0.95312-2.4844v-0.5625zm7.4688-1.8438v8.7344h-4.9219v-2.2656c-0.65625 0.92969-1.3984 1.6055-2.2188 2.0312-0.82422 0.41406-1.8242 0.625-3 0.625-1.5859 0-2.8711-0.45703-3.8594-1.375-0.99219-0.92578-1.4844-2.1289-1.4844-3.6094 0-1.7891 0.61328-3.1016 1.8438-3.9375 1.2383-0.84375 3.1797-1.2656 5.8281-1.2656h2.8906v-0.39062c0-0.76953-0.30859-1.332-0.92188-1.6875-0.61719-0.36328-1.5703-0.54688-2.8594-0.54688-1.0547 0-2.0312 0.10547-2.9375 0.3125-0.89844 0.21094-1.7305 0.52344-2.5 0.9375v-3.7344c1.0391-0.25 2.0859-0.44141 3.1406-0.57812 1.0625-0.13281 2.125-0.20312 3.1875-0.20312 2.7578 0 4.75 0.54688 5.9688 1.6406 1.2266 1.0859 1.8438 2.8555 1.8438 5.3125z"/>
  </symbol>
  <symbol id="c" overflow="visible">
   <path d="m7.7031-19.656v4.3438h5.0469v3.5h-5.0469v6.5c0 0.71094 0.14062 1.1875 0.42188 1.4375s0.83594 0.375 1.6719 0.375h2.5156v3.5h-4.1875c-1.9375 0-3.3125-0.39844-4.125-1.2031-0.80469-0.8125-1.2031-2.1797-1.2031-4.1094v-6.5h-2.4219v-3.5h2.4219v-4.3438z"/>
  </symbol>
  <symbol id="l" overflow="visible">
   <path d="m12.766-13.078v-8.2031h4.9219v21.281h-4.9219v-2.2188c-0.66797 0.90625-1.4062 1.5703-2.2188 1.9844s-1.7578 0.625-2.8281 0.625c-1.8867 0-3.4336-0.75-4.6406-2.25-1.2109-1.5-1.8125-3.4258-1.8125-5.7812 0-2.3633 0.60156-4.2969 1.8125-5.7969 1.207-1.5 2.7539-2.25 4.6406-2.25 1.0625 0 2 0.21484 2.8125 0.64062 0.82031 0.42969 1.5664 1.0859 2.2344 1.9688zm-3.2188 9.9219c1.0391 0 1.8359-0.37891 2.3906-1.1406 0.55078-0.76953 0.82812-1.8828 0.82812-3.3438 0-1.457-0.27734-2.5664-0.82812-3.3281-0.55469-0.76953-1.3516-1.1562-2.3906-1.1562-1.043 0-1.8398 0.38672-2.3906 1.1562-0.55469 0.76172-0.82812 1.8711-0.82812 3.3281 0 1.4609 0.27344 2.5742 0.82812 3.3438 0.55078 0.76172 1.3477 1.1406 2.3906 1.1406z"/>
  </symbol>
  <symbol id="k" overflow="visible">
   <path d="m10.5-3.1562c1.0508 0 1.8516-0.37891 2.4062-1.1406 0.55078-0.76953 0.82812-1.8828 0.82812-3.3438 0-1.457-0.27734-2.5664-0.82812-3.3281-0.55469-0.76953-1.3555-1.1562-2.4062-1.1562-1.0547 0-1.8594 0.38672-2.4219 1.1562-0.55469 0.77344-0.82812 1.8828-0.82812 3.3281 0 1.4492 0.27344 2.5586 0.82812 3.3281 0.5625 0.77344 1.3672 1.1562 2.4219 1.1562zm-3.25-9.9219c0.67578-0.88281 1.4219-1.5391 2.2344-1.9688 0.82031-0.42578 1.7656-0.64062 2.8281-0.64062 1.8945 0 3.4453 0.75 4.6562 2.25 1.207 1.5 1.8125 3.4336 1.8125 5.7969 0 2.3555-0.60547 4.2812-1.8125 5.7812-1.2109 1.5-2.7617 2.25-4.6562 2.25-1.0625 0-2.0078-0.21094-2.8281-0.625-0.8125-0.42578-1.5586-1.0859-2.2344-1.9844v2.2188h-4.8906v-21.281h4.8906z"/>
  </symbol>
  <symbol id="j" overflow="visible">
   <path d="m0.34375-15.312h4.8906l4.125 10.391 3.5-10.391h4.8906l-6.4375 16.766c-0.64844 1.6953-1.4023 2.8828-2.2656 3.5625-0.86719 0.6875-2 1.0312-3.4062 1.0312h-2.8438v-3.2188h1.5312c0.83203 0 1.4375-0.13672 1.8125-0.40625 0.38281-0.26172 0.67969-0.73047 0.89062-1.4062l0.14062-0.42188z"/>
  </symbol>
  <symbol id="i" overflow="visible">
   <path d="m2.5781-20.406h6.6875l4.6562 10.922 4.6719-10.922h6.6875v20.406h-4.9844v-14.938l-4.7031 11.016h-3.3281l-4.7031-11.016v14.938h-4.9844z"/>
  </symbol>
  <symbol id="x" overflow="visible">
   <path d="m6.2188-7.8281-5.5156-7.4844h5.1719l3.1406 4.5312 3.1719-4.5312h5.1719l-5.5156 7.4531 5.7969 7.8594h-5.1875l-3.4375-4.8438-3.4062 4.8438h-5.1875z"/>
  </symbol>
  <symbol id="h" overflow="visible">
   <path d="m2.3594-15.312h4.8906v15.312h-4.8906zm0-5.9688h4.8906v4h-4.8906z"/>
  </symbol>
  <symbol id="g" overflow="visible">
   <path d="m16.547-12.766c0.61328-0.94531 1.3477-1.6719 2.2031-2.1719 0.85156-0.5 1.7891-0.75 2.8125-0.75 1.7578 0 3.0977 0.54688 4.0156 1.6406 0.92578 1.0859 1.3906 2.6562 1.3906 4.7188v9.3281h-4.9219v-7.9844-0.35938c0.007813-0.13281 0.015625-0.32031 0.015625-0.5625 0-1.082-0.16406-1.8633-0.48438-2.3438-0.3125-0.48828-0.82422-0.73438-1.5312-0.73438-0.92969 0-1.6484 0.38672-2.1562 1.1562-0.51172 0.76172-0.77344 1.8672-0.78125 3.3125v7.5156h-4.9219v-7.9844c0-1.6953-0.14844-2.7852-0.4375-3.2656-0.29297-0.48828-0.8125-0.73438-1.5625-0.73438-0.9375 0-1.6641 0.38672-2.1719 1.1562-0.51172 0.76172-0.76562 1.8594-0.76562 3.2969v7.5312h-4.9219v-15.312h4.9219v2.2344c0.60156-0.86328 1.2891-1.5156 2.0625-1.9531 0.78125-0.4375 1.6406-0.65625 2.5781-0.65625 1.0625 0 2 0.25781 2.8125 0.76562 0.8125 0.51172 1.4258 1.2305 1.8438 2.1562z"/>
  </symbol>
  <symbol id="w" overflow="visible">
   <path d="m2.5781-20.406h5.25v7.4375l7.5938-7.4375h6.1094l-9.8281 9.6562 10.844 10.75h-6.5938l-8.125-8.0469v8.0469h-5.25z"/>
  </symbol>
  <symbol id="f" overflow="visible">
   <path d="m2.1875-5.9688v-9.3438h4.9219v1.5312c0 0.83594-0.007813 1.875-0.015625 3.125-0.011719 1.25-0.015625 2.0859-0.015625 2.5 0 1.2422 0.03125 2.1328 0.09375 2.6719 0.070313 0.54297 0.17969 0.93359 0.32812 1.1719 0.20703 0.32422 0.47266 0.57422 0.79688 0.75 0.32031 0.16797 0.69141 0.25 1.1094 0.25 1.0195 0 1.8203-0.39062 2.4062-1.1719 0.58203-0.78125 0.875-1.8672 0.875-3.2656v-7.5625h4.8906v15.312h-4.8906v-2.2188c-0.74219 0.89844-1.5234 1.5586-2.3438 1.9844-0.82422 0.41406-1.7344 0.625-2.7344 0.625-1.7617 0-3.1055-0.53906-4.0312-1.625-0.92969-1.082-1.3906-2.6602-1.3906-4.7344z"/>
  </symbol>
  <symbol id="v" overflow="visible">
   <path d="m2.3594-21.281h4.8906v21.281h-4.8906z"/>
  </symbol>
  <symbol id="u" overflow="visible">
   <path d="m2.3594-21.281h4.8906v11.594l5.625-5.625h5.6875l-7.4688 7.0312 8.0625 8.2812h-5.9375l-5.9688-6.3906v6.3906h-4.8906z"/>
  </symbol>
  <symbol id="b" overflow="visible">
   <path d="m9.6406-12.188c-1.0859 0-1.9141 0.39062-2.4844 1.1719-0.57422 0.78125-0.85938 1.9062-0.85938 3.375s0.28516 2.5938 0.85938 3.375c0.57031 0.77344 1.3984 1.1562 2.4844 1.1562 1.0625 0 1.875-0.38281 2.4375-1.1562 0.57031-0.78125 0.85938-1.9062 0.85938-3.375s-0.28906-2.5938-0.85938-3.375c-0.5625-0.78125-1.375-1.1719-2.4375-1.1719zm0-3.5c2.6328 0 4.6914 0.71484 6.1719 2.1406 1.4766 1.418 2.2188 3.3867 2.2188 5.9062 0 2.5117-0.74219 4.4805-2.2188 5.9062-1.4805 1.418-3.5391 2.125-6.1719 2.125-2.6484 0-4.7148-0.70703-6.2031-2.125-1.4922-1.4258-2.2344-3.3945-2.2344-5.9062 0-2.5195 0.74219-4.4883 2.2344-5.9062 1.4883-1.4258 3.5547-2.1406 6.2031-2.1406z"/>
  </symbol>
  <symbol id="t" overflow="visible">
   <path d="m0.42188-15.312h4.8906l3.8281 10.578 3.7969-10.578h4.9062l-6.0312 15.312h-5.375z"/>
  </symbol>
  <symbol id="s" overflow="visible">
   <path d="m12.422-21.281v3.2188h-2.7031c-0.6875 0-1.1719 0.125-1.4531 0.375-0.27344 0.25-0.40625 0.6875-0.40625 1.3125v1.0625h4.1875v3.5h-4.1875v11.812h-4.8906v-11.812h-2.4375v-3.5h2.4375v-1.0625c0-1.6641 0.46094-2.8984 1.3906-3.7031 0.92578-0.80078 2.3672-1.2031 4.3281-1.2031z"/>
  </symbol>
  <symbol id="r" overflow="visible">
   <path d="m17.75-9.3281v9.3281h-4.9219v-7.1094c0-1.3438-0.03125-2.2656-0.09375-2.7656s-0.16797-0.86719-0.3125-1.1094c-0.1875-0.3125-0.44922-0.55469-0.78125-0.73438-0.32422-0.17578-0.69531-0.26562-1.1094-0.26562-1.0234 0-1.8242 0.39844-2.4062 1.1875-0.58594 0.78125-0.875 1.8711-0.875 3.2656v7.5312h-4.8906v-21.281h4.8906v8.2031c0.73828-0.88281 1.5195-1.5391 2.3438-1.9688 0.83203-0.42578 1.75-0.64062 2.75-0.64062 1.7695 0 3.1133 0.54688 4.0312 1.6406 0.91406 1.0859 1.375 2.6562 1.375 4.7188z"/>
  </symbol>
  <symbol id="q" overflow="visible">
   <path d="m2.5781-20.406h5.875l7.4219 14v-14h4.9844v20.406h-5.875l-7.4219-14v14h-4.9844z"/>
  </symbol>
  <symbol id="p" overflow="visible">
   <path d="m17.75-9.3281v9.3281h-4.9219v-7.1406c0-1.3203-0.03125-2.2344-0.09375-2.7344s-0.16797-0.86719-0.3125-1.1094c-0.1875-0.3125-0.44922-0.55469-0.78125-0.73438-0.32422-0.17578-0.69531-0.26562-1.1094-0.26562-1.0234 0-1.8242 0.39844-2.4062 1.1875-0.58594 0.78125-0.875 1.8711-0.875 3.2656v7.5312h-4.8906v-15.312h4.8906v2.2344c0.73828-0.88281 1.5195-1.5391 2.3438-1.9688 0.83203-0.42578 1.75-0.64062 2.75-0.64062 1.7695 0 3.1133 0.54688 4.0312 1.6406 0.91406 1.0859 1.375 2.6562 1.375 4.7188z"/>
  </symbol>
  <symbol id="o" overflow="visible">
   <path d="m2.5781-20.406h8.7344c2.5938 0 4.582 0.57812 5.9688 1.7344 1.3945 1.1484 2.0938 2.7891 2.0938 4.9219 0 2.1367-0.69922 3.7812-2.0938 4.9375-1.3867 1.1562-3.375 1.7344-5.9688 1.7344h-3.4844v7.0781h-5.25zm5.25 3.8125v5.7031h2.9219c1.0195 0 1.8047-0.25 2.3594-0.75 0.5625-0.5 0.84375-1.2031 0.84375-2.1094 0-0.91406-0.28125-1.6172-0.84375-2.1094-0.55469-0.48828-1.3398-0.73438-2.3594-0.73438z"/>
  </symbol>
  <symbol id="n" overflow="visible">
   <path d="m2.3594-15.312h4.8906v15.031c0 2.0508-0.49609 3.6172-1.4844 4.7031-0.98047 1.082-2.4062 1.625-4.2812 1.625h-2.4219v-3.2188h0.85938c0.92578 0 1.5625-0.21094 1.9062-0.625 0.35156-0.41797 0.53125-1.2461 0.53125-2.4844zm0-5.9688h4.8906v4h-4.8906z"/>
  </symbol>
  <symbol id="m" overflow="visible">
   <path d="m14.719-14.828v3.9844c-0.65625-0.45703-1.3242-0.79688-2-1.0156-0.66797-0.21875-1.3594-0.32812-2.0781-0.32812-1.3672 0-2.4336 0.40234-3.2031 1.2031-0.76172 0.79297-1.1406 1.9062-1.1406 3.3438 0 1.4297 0.37891 2.543 1.1406 3.3438 0.76953 0.79297 1.8359 1.1875 3.2031 1.1875 0.75781 0 1.4844-0.10938 2.1719-0.32812 0.6875-0.22656 1.3203-0.56641 1.9062-1.0156v4c-0.76172 0.28125-1.5391 0.48828-2.3281 0.625-0.78125 0.14453-1.5742 0.21875-2.375 0.21875-2.7617 0-4.9219-0.70703-6.4844-2.125-1.5547-1.4141-2.3281-3.3828-2.3281-5.9062 0-2.5312 0.77344-4.5039 2.3281-5.9219 1.5625-1.4141 3.7227-2.125 6.4844-2.125 0.80078 0 1.5938 0.074219 2.375 0.21875 0.78125 0.13672 1.5547 0.35156 2.3281 0.64062z"/>
  </symbol>
 </defs>
 <g>
  <path d="m163.4 115.76c-18.367 17.523-6.2773 53.844-2.3086 65.781 12.633 37.953 27.938 69.629 44.141 103.16 5.1367 10.617 10.371 21.453 15.652 32.766 6.6484 14.223 8.0195 28.98 9.4766 44.598 1.1602 12.414 2.3516 25.258 6.2812 38.434 2.207 7.4102 5.0977 14.887 8.5977 22.113-18.414 9.1055-29.785 27.133-29.641 48.203 0.18359 26.145 19.152 43.406 24.227 46.598 1.3711 0.86328 2.8828 1.2773 4.375 1.2773 0.09375 0 0.19141-0.035156 0.28516-0.035156 4.1289 1.5586 8.1133 2.9609 12.125 4.2266 0.83984 0.26172 1.6953 0.38672 2.5352 0.38672 3.5664 0 6.875-2.2852 8.0078-5.8672 1.3984-4.4258-1.0547-9.1445-5.4766-10.543-4.0977-1.2891-8.1641-2.7148-12.438-4.3516-0.58984-0.23047-1.1875-0.37109-1.7852-0.46094-4.0586-3.6445-14.934-14.945-15.055-31.348-0.10156-14.945 7.8555-27.293 21.129-33.449 13.766 20.914 33.785 36.812 60.047 36.812 0.67188 0 1.3477-0.011719 2.0273-0.035157 5.0625-0.15234 10.152-0.85156 15.539-2.1445 4.5117-1.082 7.2969-5.6172 6.2148-10.129-1.082-4.5117-5.6289-7.3125-10.125-6.2109-4.2656 1.0234-8.2383 1.5742-12.145 1.6953-41.539 1.2656-59.215-51.043-62.34-61.543-3.457-11.586-4.5234-23.055-5.6562-35.191-1.5234-16.363-3.1016-33.273-10.98-50.148-5.3125-11.379-10.586-22.281-15.746-32.969-15.961-33.023-31.035-64.227-43.328-101.15-11.055-33.195-6.0273-44.52-2.043-48.316 12.137-11.586 30.773-0.85547 40.797 6.5508 8.8438 6.5391 15.535 17.074 19.891 31.316 2.2305 7.2852 3.7109 14.723 5.2734 22.598 1.1875 5.9805 2.4258 12.176 4.0156 18.305 2.0039 7.7227 4.9336 16.594 11.434 23.828 4.0039 4.4531 8.4961 7.0234 13.355 7.6445 0.77344 0.10156 1.332 0.20703 1.7578 0.29297 7.1953 1.4336 10.164-2.7773 11.762-6.0469l0.58203-1.1641c2.6953-5.2148 2.4766-10.797 2.2969-15.281-0.035156-0.8125-0.066406-1.6055-0.074219-2.375l-0.023437-1.8828c-0.58203-51.219-1.1367-99.59 10.902-151.39 0.11719-0.47656 2.9961-11.742 13.691-14.66 9.9102-2.6953 24.711 1.25 30.469 8.125 4.8047 5.7344 6.9648 13.492 8.4492 20.316 6.9727 32.098-0.80469 71.875-7.6719 106.97-0.79688 4.0703-1.5781 8.0625-2.3203 11.969-1.4297 7.5312 2.168 12.254 6.0078 14.152 6.1719 3.0742 14.461 0.25781 21.117-7.1289 4.0898-4.5352 5.5117-11.047 6.7695-16.793 0.37891-1.7539 0.72656-3.3984 1.1523-4.7148 0.46484-1.4297 0.92969-2.918 1.3984-4.4453 2.6445-8.5117 5.6406-18.156 11.117-23.273 3.7344-3.4883 12.227-8.4961 31.488-12.531 24.242-5.0625 49.543-1.3828 69.434 10.129 15.473 8.9609 27.289 24.781 35.113 47.02 9.5078 27.047 8.6953 42-2.6367 48.484-3.5781 2.043-17.684-0.32031-23.902-7.1133-3.8867-4.2461-6.1328-10.445-8.5195-17.012-4.5234-12.48-10.16-28.012-29.973-31.695-12.465-2.3086-26.066 2.4922-33.848 11.977-8.1602 9.9414-8.9609 22.727-9.543 32.055l-2.543 40.75c-0.48047 7.7656-1.0312 16.574 0.82422 25.301 3.6914 17.348 20.223 29.055 38.504 27.184 17.949-1.8086 29.707-14.941 34.949-39.027 1.5586-7.1328 13.809-18.039 18.469-18.688 7.7773-1.0742 13.273-1.8477 17.035-2.375 5.5039 20.434 12.059 61.141-3.2656 83.305-8.043 11.637-16.363 21.078-25.434 28.855-11.859 10.176-34.035 27.445-46.52 33.332-15.406 7.2578-28.711 11.344-42.797 15.68-14.027 4.3125-28.531 8.7695-45.031 16.543l-1.9336 0.91406c-2.0547 0.96875-4.1328 1.9414-6.2148 2.9023-4.2188 1.9375-6.0664 6.9219-4.1289 11.137 1.9375 4.2109 6.9258 6.0547 11.137 4.1289 2.1289-0.98047 4.25-1.9766 6.3711-2.9688l1.9375-0.91797c14.094-6.6367 26.449-10.625 39.227-14.57 10.535 9.4922 14.66 24.91 9.0156 36.148-8.293 16.684-16.195 19.203-35.285 25.289l-4.8047 1.5391c-0.015625 0.003906-0.035156 0.015625-0.054687 0.023438-20.379 6.3555-42.336 9.25-65.348 8.4609l-0.51562-0.015625c-4.6211-0.13281-8.5625 3.3711-8.7812 8.0039-0.21875 4.6328 3.3672 8.5625 8.0039 8.7734l0.82813 0.035156c2.5938 0.078125 5.1406 0.12109 7.6836 0.12109 22.125 0 43.398-3.1523 63.336-9.3984 0.054687-0.015624 0.10156-0.050781 0.15625-0.066406l4.625-1.4766c20.328-6.4844 33.762-10.77 45.207-33.785 7.7344-15.41 4.7148-34.855-6.3398-49.254 9.7148-3.1875 19.836-6.8555 30.879-12.062 15.055-7.0938 38.703-25.82 50.301-35.773 10.18-8.7422 19.441-19.227 28.32-32.066 25.496-36.887 4.3164-102.07 3.4062-104.83l-0.011718-0.039062c18.984-18.137 7.6211-50.469 3.0703-63.41-9.1914-26.125-23.504-44.961-42.543-55.984-23.43-13.57-53.066-17.977-81.301-12.027-18.512 3.875-31.809 9.4961-39.512 16.699-6.1641 5.7617-9.9023 13.652-12.652 21.309 5.3242-29.992 9.0039-61.527 2.9688-89.324-1.8047-8.3086-4.8008-18.957-11.984-27.535-9.9922-11.945-31.422-18.02-47.773-13.551-20.535 5.6055-25.434 26.215-25.625 27.043-12.5 53.793-11.938 103.16-11.344 155.41l0.023437 1.8828c0.011719 0.92578 0.050782 1.875 0.089844 2.8516 0.039063 1.0352 0.085938 2.1719 0.078125 3.2422-0.17188-0.17969-0.35938-0.37109-0.54297-0.58203-4.0938-4.5547-6.1758-11.059-7.6719-16.824-1.4727-5.6562-2.6055-11.34-3.8008-17.359-1.5781-7.9336-3.207-16.141-5.6836-24.227-5.4336-17.758-14.172-31.188-25.973-39.91-24.293-17.934-47.023-19.832-62.387-5.1953zm306.7 167c-4.7617 21.852-13.82 25.238-20.227 25.891-9.7539 0.96875-18.48-5.0195-20.383-13.973-1.3789-6.4727-0.92969-13.73-0.48828-20.754l2.543-40.746c0.59375-9.457 1.3945-17.121 5.7617-22.449 3.2812-4.0039 8.8984-6.418 14.453-6.418 1.1211 0 2.2383 0.10156 3.3359 0.30078 9.9062 1.8438 12.723 8.4375 17.246 20.906 2.7031 7.4609 5.7695 15.914 11.91 22.629 2.3477 2.5664 5.2656 4.8164 8.5195 6.7031-10.23 6.1055-20.527 18.07-22.672 27.91z"/>
  <path d="m283.95 512.41c-4.5547-0.82422-8.9375 2.1953-9.7734 6.7539-0.83594 4.5625 2.1953 8.9414 6.7578 9.7734l2.5742 0.44922c0.46484 0.078126 0.92969 0.11719 1.3906 0.11719 4.0312 0 7.5938-2.918 8.2773-7.0234 0.76172-4.5742-2.3359-8.9023-6.9102-9.6641z"/>
  <use x="70" y="644" xlink:href="#y"/>
  <use x="90.550781" y="644" xlink:href="#d"/>
  <use x="104.359375" y="644" xlink:href="#a"/>
  <use x="123.347656" y="644" xlink:href="#e"/>
  <use x="142.242188" y="644" xlink:href="#c"/>
  <use x="155.628906" y="644" xlink:href="#a"/>
  <use x="174.617188" y="644" xlink:href="#l"/>
  <use x="204.410156" y="644" xlink:href="#k"/>
  <use x="224.453125" y="644" xlink:href="#j"/>
  <use x="252.453125" y="644" xlink:href="#i"/>
  <use x="280.3125" y="644" xlink:href="#e"/>
  <use x="299.210938" y="644" xlink:href="#x"/>
  <use x="317.269531" y="644" xlink:href="#h"/>
  <use x="326.867188" y="644" xlink:href="#g"/>
  <use x="365.789062" y="644" xlink:href="#w"/>
  <use x="387.488281" y="644" xlink:href="#f"/>
  <use x="407.421875" y="644" xlink:href="#v"/>
  <use x="417.019531" y="644" xlink:href="#h"/>
  <use x="426.617188" y="644" xlink:href="#u"/>
  <use x="445.238281" y="644" xlink:href="#b"/>
  <use x="464.476562" y="644" xlink:href="#t"/>
  <use x="70" y="672" xlink:href="#s"/>
  <use x="82.183594" y="672" xlink:href="#d"/>
  <use x="95.992188" y="672" xlink:href="#b"/>
  <use x="115.226562" y="672" xlink:href="#g"/>
  <use x="154.152344" y="672" xlink:href="#c"/>
  <use x="167.535156" y="672" xlink:href="#r"/>
  <use x="187.46875" y="672" xlink:href="#a"/>
  <use x="216.207031" y="672" xlink:href="#q"/>
  <use x="239.640625" y="672" xlink:href="#b"/>
  <use x="258.878906" y="672" xlink:href="#f"/>
  <use x="278.8125" y="672" xlink:href="#p"/>
  <use x="308.492188" y="672" xlink:href="#o"/>
  <use x="329.015625" y="672" xlink:href="#d"/>
  <use x="342.820312" y="672" xlink:href="#b"/>
  <use x="362.058594" y="672" xlink:href="#n"/>
  <use x="371.65625" y="672" xlink:href="#a"/>
  <use x="390.648438" y="672" xlink:href="#m"/>
  <use x="407.242188" y="672" xlink:href="#c"/>
 </g>
</svg>
