<?xml version="1.0" encoding="UTF-8"?>
<svg width="700pt" height="700pt" version="1.1" viewBox="0 0 700 700" xmlns="http://www.w3.org/2000/svg">
 <g>
  <path d="m328.78 398.35c0 7.5664 4.0352 14.562 10.594 18.348 6.5547 3.7852 14.629 3.7852 21.184 0 6.5547-3.7852 10.594-10.781 10.594-18.348v-0.39453c-0.042969-5.5703-2.293-10.898-6.2578-14.812s-9.3203-6.0977-14.891-6.0742c-5.6328 0.023438-11.023 2.2773-15 6.2617-3.9766 3.9883-6.2148 9.3867-6.2227 15.02z"/>
  <path d="m619.98 429.52c-0.23828-0.58203-0.51172-1.1523-0.82031-1.6992l-205.69-359.71c-8.3828-15.199-21.938-26.887-38.207-32.941-16.266-6.0547-34.168-6.0742-50.449-0.050781-16.281 6.0195-29.859 17.68-38.273 32.863l-11.945 21.094h-0.003906c-2.0977 3.2305-2.7695 7.1836-1.8594 10.926 0.91016 3.7422 3.3242 6.9414 6.6758 8.8477 3.3477 1.9023 7.332 2.3398 11.016 1.207 3.6797-1.1289 6.7344-3.7305 8.4336-7.1875l12.113-21.355h0.003906c5.207-9.3398 13.59-16.5 23.633-20.18 10.039-3.6797 21.066-3.6367 31.074 0.125 10.012 3.7617 18.336 10.992 23.469 20.375l205.2 359.02c1.6836 4.418 2.6875 9.0703 2.9688 13.793 0.57812 11.848-3.5781 23.441-11.555 32.219-7.7695 8.6719-18.656 13.906-30.277 14.562h-409.18c-0.24219 0-0.42969 0.11328-0.67188 0.12891-0.24219 0.019531-0.24219 0-0.39062-0.11328-4.9805-0.23438-9.8945-1.2734-14.543-3.0781-10.84-4.4414-19.523-12.93-24.215-23.668-4.6875-10.734-5.0156-22.871-0.91016-33.844l105.34-184.3c1.9492-3.2305 2.5117-7.1055 1.5625-10.754-0.94922-3.6523-3.3281-6.7617-6.6055-8.6328-3.2734-1.8711-7.1602-2.3438-10.789-1.3086-3.625 1.0352-6.6797 3.4922-8.4727 6.8086l-105.84 185.15c-0.31641 0.55078-0.59375 1.125-0.82031 1.7188-8.8984 21.797-6.6602 46.559 6 66.41 12.66 19.852 34.172 32.316 57.691 33.438h0.80078c0.33594 0 0.61719-0.16797 0.95312-0.1875 0.33594-0.019531 0.59766 0.1875 0.91406 0.1875h409.81c19.27-0.93359 37.375-9.4883 50.328-23.781 12.957-14.293 19.699-33.148 18.738-52.418-0.42969-8.1211-2.1875-16.117-5.207-23.668z"/>
  <path d="m363.66 317.09v-87.488c0-7.7344-6.2695-14-14-14-7.7305 0-14 6.2656-14 14v87.586-0.003906c0 7.7305 6.2695 14 14 14 7.7305 0 14-6.2695 14-14z"/>
 </g>
</svg>
